<?xml version="1.0"?>
<svg xmlns="http://www.w3.org/2000/svg" height="512px" viewBox="0 0 64 64" width="512px"><g><g id="execution"><path d="m45 18a4 4 0 1 0 4-4 4 4 0 0 0 -4 4zm4-2a2 2 0 1 1 -2 2 2 2 0 0 1 2-2z" data-original="#000000" class="active-path" data-old_color="#000000" fill="#1273EB"/><path d="m8 35h35v2h-35z" data-original="#000000" class="active-path" data-old_color="#000000" fill="#1273EB"/><path d="m61 50a4 4 0 0 1 0-8 1 1 0 0 0 0-2h-6a4 4 0 0 1 0-8 1 1 0 0 0 0-2h-5v-2h1a1 1 0 0 0 .97-.76l.32-1.29 1.15.69a1.014 1.014 0 0 0 1.22-.15l2.83-2.83a1.027 1.027 0 0 0 .15-1.23l-.69-1.14 1.29-.32a1 1 0 0 0 .76-.97v-4a1 1 0 0 0 -.76-.97l-1.29-.32.69-1.15a1.014 1.014 0 0 0 -.15-1.22l-2.83-2.83a1.014 1.014 0 0 0 -1.22-.15l-1.15.69-.32-1.29a1 1 0 0 0 -.97-.76h-1v-3a3.009 3.009 0 0 0 -3-3h-30a3.009 3.009 0 0 0 -3 3v25h-4a6 6 0 0 0 0 12h1.54a5.965 5.965 0 0 0 0 8h-3.54a6 6 0 0 0 0 12h45a1 1 0 0 0 0-2 4 4 0 0 1 0-8h8a1 1 0 0 0 0-2zm-10.78-40 .46 1.84a1.045 1.045 0 0 0 .59.69 1.023 1.023 0 0 0 .9-.07l1.62-.98 1.73 1.73-.98 1.62a1 1 0 0 0 .62 1.49l1.84.46v2.44l-1.84.46a1 1 0 0 0 -.62 1.49l.98 1.62-1.73 1.73-1.62-.98a1.023 1.023 0 0 0 -.9-.07 1.045 1.045 0 0 0 -.59.69l-.46 1.84h-2.44l-.46-1.84a1.045 1.045 0 0 0 -.59-.69 1.023 1.023 0 0 0 -.9.07l-1.62.98-1.73-1.73.98-1.62a1 1 0 0 0 -.62-1.49l-1.84-.46v-2.44l1.84-.46a1 1 0 0 0 .62-1.49l-.98-1.62 1.73-1.73 1.62.98a1.023 1.023 0 0 0 .9.07 1.045 1.045 0 0 0 .59-.69l.46-1.84zm-28.22-6h20v1a1 1 0 0 1 -1 1h-18a1 1 0 0 1 -1-1zm-6 1a1 1 0 0 1 1-1h3v1a3.009 3.009 0 0 0 3 3h18a3.009 3.009 0 0 0 3-3v-1h3a1 1 0 0 1 1 1v3h-1a1 1 0 0 0 -.97.76l-.32 1.29-1.15-.69a1.014 1.014 0 0 0 -1.22.15l-2.83 2.83a1.014 1.014 0 0 0 -.15 1.22l.69 1.15-1.29.32a1 1 0 0 0 -.76.97v4a1 1 0 0 0 .76.97l1.29.32-.69 1.14a1.027 1.027 0 0 0 .15 1.23l2.83 2.83a1.014 1.014 0 0 0 1.22.15l1.15-.69.32 1.29a1 1 0 0 0 .97.76h1v2h-32zm-6 35a4 4 0 0 1 0-8h40.53a5.994 5.994 0 0 0 0 8zm38.53 20h-40.53a4 4 0 0 1 0-8h40.53a5.994 5.994 0 0 0 0 8zm8-10h-40.53a4 4 0 0 1 0-8h40.53a5.994 5.994 0 0 0 0 8z" data-original="#000000" class="active-path" data-old_color="#000000" fill="#1273EB"/><path d="m45 35h2v2h-2z" data-original="#000000" class="active-path" data-old_color="#000000" fill="#1273EB"/><path d="m6 55h35v2h-35z" data-original="#000000" class="active-path" data-old_color="#000000" fill="#1273EB"/><path d="m43 55h2v2h-2z" data-original="#000000" class="active-path" data-old_color="#000000" fill="#1273EB"/><path d="m18 45h35v2h-35z" data-original="#000000" class="active-path" data-old_color="#000000" fill="#1273EB"/><path d="m14 45h2v2h-2z" data-original="#000000" class="active-path" data-old_color="#000000" fill="#1273EB"/><path d="m22 17h2v2h-2z" data-original="#000000" class="active-path" data-old_color="#000000" fill="#1273EB"/><path d="m26 17h10v2h-10z" data-original="#000000" class="active-path" data-old_color="#000000" fill="#1273EB"/><path d="m22 13h4v2h-4z" data-original="#000000" class="active-path" data-old_color="#000000" fill="#1273EB"/><path d="m28 13h8v2h-8z" data-original="#000000" class="active-path" data-old_color="#000000" fill="#1273EB"/><path d="m22 21h8v2h-8z" data-original="#000000" class="active-path" data-old_color="#000000" fill="#1273EB"/><path d="m32 21h4v2h-4z" data-original="#000000" class="active-path" data-old_color="#000000" fill="#1273EB"/></g></g> </svg>
