<?xml version="1.0"?>
<svg xmlns="http://www.w3.org/2000/svg" id="Capa_1" enable-background="new 0 0 512 512" height="512" viewBox="0 0 512 512" width="512" class=""><g><g><path d="m497 482h-66v-147c0-16.542-13.458-30-30-30h-22.302c-5.877-25.639-17.576-47.653-34.259-64.191-10.5-10.409-22.708-18.363-36.247-23.714 29.019-25.038 47.958-68.322 47.958-107.429 0-35.488-9.872-63.341-29.341-82.782-17.611-17.588-42.096-26.884-70.809-26.884-28.712 0-53.198 9.296-70.81 26.884-19.469 19.441-29.341 47.294-29.341 82.782 0 39.106 18.939 82.391 47.958 107.429-13.538 5.351-25.746 13.305-36.246 23.714-16.683 16.538-28.382 38.553-34.258 64.191h-22.303c-16.542 0-30 13.458-30 30v147h-66c-8.284 0-15 6.716-15 15s6.716 15 15 15h482c8.284 0 15-6.716 15-15s-6.716-15-15-15zm-241-452c22.03 0 56.606 7.323 67.056 50.861-15.288-1.944-24.018-6.263-30.851-9.644-6.698-3.314-14.29-7.071-23.555-4.947-7.521 1.724-12.898 5.967-18.097 10.071-9.475 7.479-23.308 18.373-64.163 20.579 5.087-57.863 45.109-66.92 69.61-66.92zm-68.64 96.908c50.947-2.683 69.976-17.7 81.781-27.019 1.709-1.35 3.909-3.085 5.271-3.916 1.204.508 2.981 1.387 4.489 2.133 8.814 4.361 22.653 11.205 47.211 13.213-.392 22.087-8.603 46.584-22.173 65.885-13.848 19.698-31.322 30.996-47.939 30.996s-34.091-11.298-47.94-30.996c-10.435-14.843-17.715-32.764-20.7-50.296zm60.64 112.092h16c41.628 0 71.994 24.34 83.776 66h-183.552c11.782-41.66 42.148-66 83.776-66zm-137 243v-147h290v147z" data-original="#000000" class="active-path" style="fill:#FFFFFF" data-old_color="#000000"/><circle cx="256" cy="399.997" r="15" data-original="#000000" class="active-path" style="fill:#FFFFFF" data-old_color="#000000"/></g></g> </svg>
