<?xml version="1.0"?>
<svg xmlns="http://www.w3.org/2000/svg" id="Capa_1" enable-background="new 0 0 512 512" height="512px" viewBox="0 0 512 512" width="512px"><g><g><g><path d="m211.384 270.855h-118.217c-4.143 0-7.5 3.357-7.5 7.5s3.357 7.5 7.5 7.5h118.217c4.143 0 7.5-3.357 7.5-7.5s-3.358-7.5-7.5-7.5z" data-original="#000000" class="active-path" data-old_color="#000000" fill="#1273EB"/><path d="m211.384 321.121h-118.217c-4.143 0-7.5 3.357-7.5 7.5s3.357 7.5 7.5 7.5h118.217c4.143 0 7.5-3.357 7.5-7.5s-3.358-7.5-7.5-7.5z" data-original="#000000" class="active-path" data-old_color="#000000" fill="#1273EB"/><path d="m218.884 378.887c0-4.143-3.357-7.5-7.5-7.5h-118.217c-4.143 0-7.5 3.357-7.5 7.5s3.357 7.5 7.5 7.5h118.217c4.142 0 7.5-3.358 7.5-7.5z" data-original="#000000" class="active-path" data-old_color="#000000" fill="#1273EB"/><path d="m93.167 421.652c-4.143 0-7.5 3.357-7.5 7.5s3.357 7.5 7.5 7.5h59.876c4.143 0 7.5-3.357 7.5-7.5s-3.357-7.5-7.5-7.5z" data-original="#000000" class="active-path" data-old_color="#000000" fill="#1273EB"/><path d="m489.925 346.183c-3.058 0-5.764-1.973-6.732-4.909-1.722-5.214-3.851-10.342-6.327-15.24-1.358-2.689-.817-5.95 1.351-8.117 8.606-8.607 8.606-22.613 0-31.22l-11.276-11.277c-8.607-8.605-22.612-8.606-31.222.003-2.166 2.165-5.428 2.706-8.114 1.349-4.903-2.479-10.032-4.607-15.241-6.327-2.937-.969-4.909-3.675-4.909-6.732 0-12.172-9.903-22.075-22.076-22.075h-15.946c-12.173 0-22.076 9.903-22.076 22.075 0 3.058-1.973 5.764-4.908 6.732-5.21 1.72-10.339 3.849-15.241 6.327-2.688 1.358-5.949.817-8.118-1.352-8.607-8.604-22.612-8.607-31.22.001l-11.275 11.275c-8.607 8.607-8.607 22.613.002 31.223 2.166 2.165 2.707 5.426 1.349 8.114-2.479 4.905-4.608 10.034-6.327 15.241-.969 2.937-3.675 4.909-6.732 4.909-12.172 0-22.075 9.903-22.075 22.075v15.947c0 12.172 9.903 22.075 22.075 22.075 3.058 0 5.764 1.973 6.732 4.909 1.72 5.21 3.849 10.339 6.327 15.242 1.358 2.688.816 5.949-1.35 8.116-8.628 8.626-8.63 22.592-.001 31.219l11.275 11.277c8.607 8.607 22.613 8.607 31.223-.002 2.164-2.165 5.428-2.706 8.114-1.349 4.9 2.477 10.028 4.605 15.24 6.326 2.938.97 4.91 3.675 4.91 6.732 0 12.173 9.903 22.076 22.076 22.076h15.946c12.173 0 22.076-9.903 22.076-22.076 0-3.058 1.973-5.763 4.908-6.732 5.214-1.721 10.342-3.85 15.242-6.326 2.688-1.358 5.948-.819 8.116 1.351 8.607 8.607 22.613 8.606 31.221-.001l11.274-11.275c8.628-8.626 8.63-22.592-.001-31.221-2.165-2.166-2.707-5.428-1.349-8.115 2.476-4.897 4.604-10.025 6.327-15.242.969-2.937 3.675-4.909 6.732-4.909 12.172 0 22.075-9.903 22.075-22.075v-15.947c0-12.172-9.903-22.075-22.075-22.075zm7.075 38.022c0 3.901-3.174 7.075-7.075 7.075-9.544 0-17.974 6.111-20.977 15.206-1.489 4.51-3.329 8.943-5.47 13.178-4.289 8.485-2.631 18.729 4.131 25.491 2.765 2.765 2.766 7.239-.001 10.006l-11.275 11.275c-2.757 2.759-7.234 2.774-10.008-.002-6.761-6.759-17.004-8.419-25.489-4.128-4.235 2.141-8.669 3.98-13.178 5.469-9.095 3.004-15.205 11.434-15.205 20.977 0 3.901-3.175 7.076-7.076 7.076h-15.946c-3.901 0-7.076-3.175-7.076-7.076 0-9.543-6.11-17.973-15.207-20.977-4.507-1.488-8.94-3.328-13.177-5.469-3.143-1.589-6.525-2.361-9.884-2.361-5.711 0-11.349 2.234-15.606 6.491-1.336 1.337-3.113 2.073-5.003 2.073s-3.667-.736-5.003-2.072l-11.276-11.277c-2.74-2.74-2.789-7.215.003-10.008 6.759-6.76 8.417-17.003 4.128-25.488-2.143-4.239-3.983-8.672-5.47-13.176-3.002-9.097-11.433-15.208-20.977-15.208-3.901 0-7.075-3.174-7.075-7.075v-15.947c0-3.901 3.174-7.075 7.075-7.075 9.544 0 17.974-6.111 20.977-15.207 1.485-4.502 3.326-8.935 5.47-13.177 4.289-8.486 2.63-18.729-4.13-25.49-2.759-2.759-2.759-7.247 0-10.007l11.274-11.275c2.759-2.758 7.248-2.76 10.009.001 6.758 6.759 17 8.42 25.489 4.13 4.239-2.143 8.672-3.983 13.177-5.47 9.095-3.003 15.206-11.433 15.206-20.977 0-3.901 3.175-7.075 7.076-7.075h15.946c3.901 0 7.076 3.174 7.076 7.075 0 9.544 6.111 17.974 15.207 20.977 4.504 1.486 8.937 3.327 13.176 5.47 8.488 4.29 18.731 2.63 25.49-4.131 2.76-2.761 7.249-2.759 10.007-.001l11.275 11.277c2.759 2.757 2.774 7.234-.002 10.008-6.758 6.759-8.417 17.002-4.128 25.489 2.141 4.235 3.981 8.669 5.47 13.177 3.003 9.095 11.433 15.206 20.977 15.206 3.901 0 7.075 3.174 7.075 7.075z" data-original="#000000" class="active-path" data-old_color="#000000" fill="#1273EB"/><path d="m345.549 142.828h-72.018c-4.143 0-7.5 3.357-7.5 7.5s3.357 7.5 7.5 7.5h72.018c9.846 0 17.856-8.011 17.856-17.857v-20.286c0-9.846-8.011-17.856-17.856-17.856h-123.809c-9.846 0-17.856 8.011-17.856 17.856v20.286c0 9.847 8.011 17.857 17.856 17.857h16.729c4.143 0 7.5-3.357 7.5-7.5s-3.357-7.5-7.5-7.5h-16.729c-1.575 0-2.856-1.282-2.856-2.857v-20.286c0-1.575 1.281-2.856 2.856-2.856h123.809c1.575 0 2.856 1.281 2.856 2.856v20.286c0 1.575-1.281 2.857-2.856 2.857z" data-original="#000000" class="active-path" data-old_color="#000000" fill="#1273EB"/><path d="m325.333 495.828h-253.585c-7.715 0-13.991-6.276-13.991-13.991v-314.852c0-1.797.208-3.561.601-5.271h73.195c15.985 0 28.99-13.005 28.99-28.99v-73.194c1.709-.393 3.473-.601 5.271-.601h211.512c7.715 0 13.991 6.276 13.991 13.991v146.58c0 4.143 3.357 7.5 7.5 7.5s7.5-3.357 7.5-7.5v-146.58c0-15.985-13.006-28.991-28.991-28.991h-13.767v-13.766c0-15.985-13.005-28.991-28.99-28.991h-305.579c-15.985 0-28.99 13.006-28.99 28.991v408.917c0 15.985 13.005 28.991 28.99 28.991h13.767v13.766c0 15.985 13.006 28.991 28.991 28.991h253.585c4.143 0 7.5-3.357 7.5-7.5s-3.357-7.5-7.5-7.5zm-179.79-363.103c0 7.714-6.276 13.99-13.99 13.99h-63.188l77.178-77.179zm-102.786 34.26v286.086h-13.767c-7.714 0-13.99-6.276-13.99-13.991v-408.917c0-7.715 6.276-13.991 13.99-13.991h305.578c7.714 0 13.99 6.276 13.99 13.991v13.766h-182.745c-10.238 0-19.864 3.987-27.104 11.227l-84.725 84.727c-7.24 7.238-11.227 16.863-11.227 27.102z" data-original="#000000" class="active-path" data-old_color="#000000" fill="#1273EB"/><path d="m377.403 295.988c-44.246 0-80.243 35.997-80.243 80.243 0 44.227 36.019 80.243 80.243 80.243 44.222 0 80.244-36.013 80.244-80.243 0-44.246-35.997-80.243-80.244-80.243zm0 145.487c-18.298 0-34.85-7.582-46.709-19.756 7.142-11.152 18.006-19.41 30.676-23.228 4.791 2.537 10.245 3.98 16.033 3.98s11.243-1.444 16.033-3.981c12.67 3.818 23.533 12.076 30.676 23.228-11.858 12.175-28.411 19.757-46.709 19.757zm-19.381-73.386c0-10.687 8.694-19.381 19.381-19.381 10.688 0 19.382 8.694 19.382 19.381 0 10.688-8.694 19.382-19.382 19.382-10.686 0-19.381-8.695-19.381-19.382zm75.648 41.111c-7.224-9.587-16.761-17.154-27.698-22.006 3.668-5.468 5.813-12.04 5.813-19.105 0-18.958-15.424-34.381-34.382-34.381s-34.381 15.423-34.381 34.381c0 7.065 2.144 13.637 5.813 19.105-10.937 4.853-20.474 12.42-27.698 22.006-5.695-9.682-8.977-20.946-8.977-32.969 0-35.976 29.268-65.243 65.243-65.243s65.244 29.268 65.244 65.243c0 12.023-3.282 23.287-8.977 32.969z" data-original="#000000" class="active-path" data-old_color="#000000" fill="#1273EB"/></g></g></g> </svg>
