<?xml version="1.0"?>
<svg xmlns="http://www.w3.org/2000/svg" viewBox="0 0 64 64" width="512px" height="512px" class=""><g><g id="Management"><ellipse cx="19" cy="26" rx="8" ry="2" data-original="#000000" class="active-path" data-old_color="#000000" fill="#1273EB"/><path d="M11,34.52V38c0,.51,2.75,2,8,2s8-1.49,8-2V34.52A18.866,18.866,0,0,1,19,36,18.866,18.866,0,0,1,11,34.52Z" data-original="#000000" class="active-path" data-old_color="#000000" fill="#1273EB"/><path d="M27,44V40.52A18.866,18.866,0,0,1,19,42a18.866,18.866,0,0,1-8-1.48V44c0,.51,2.75,2,8,2S27,44.51,27,44Z" data-original="#000000" class="active-path" data-old_color="#000000" fill="#1273EB"/><path d="M27,28.52A18.866,18.866,0,0,1,19,30a18.866,18.866,0,0,1-8-1.48V32c0,.51,2.75,2,8,2s8-1.49,8-2Z" data-original="#000000" class="active-path" data-old_color="#000000" fill="#1273EB"/><path d="M40,10a.988.988,0,0,1,.55-.89l4-2a.978.978,0,0,1,.69-.08l8,2A1,1,0,0,1,54,10v2.59l1-1V9a5,5,0,0,0-5-5H44a5,5,0,0,0-5,5v2.59l1,1Z" data-original="#000000" class="active-path" data-old_color="#000000" fill="#1273EB"/><path d="M43.63,22.13,43.15,25H43a11.02,11.02,0,0,0-9.19,5h-.02c-.11.16-.21.33-.31.5a9.342,9.342,0,0,0-.71,1.5H29V26c0-2.75-5.18-4-10-4S9,23.25,9,26v5.78A9,9,0,0,1,11,14h.14c.53.01,1.32.12,1.19.1A12.991,12.991,0,0,1,35.74,9.69a13.835,13.835,0,0,1,1.33,2.68,1.238,1.238,0,0,0,.22.34L40,15.41V16A7,7,0,0,0,43.63,22.13Z" data-original="#000000" class="active-path" data-old_color="#000000" fill="#1273EB"/><rect x="18" y="48" width="2" height="2" data-original="#000000" class="active-path" data-old_color="#000000" fill="#1273EB"/><path d="M20,56V52H18v4a3,3,0,0,0,3,3H36V57H21A1,1,0,0,1,20,56Z" data-original="#000000" class="active-path" data-old_color="#000000" fill="#1273EB"/><path d="M48.46,22.84a6.741,6.741,0,0,1-2.92,0L45.18,25h3.64Z" data-original="#000000" class="active-path" data-old_color="#000000" fill="#1273EB"/><polygon points="48.38 27 45.62 27 47 29.76 48.38 27" data-original="#000000" class="active-path" data-old_color="#000000" fill="#1273EB"/><path d="M52,16V10.78L45.12,9.06,42,10.62V16a5,5,0,0,0,10,0Zm-6-1H44V13h2Zm4,0H48V13h2Z" data-original="#000000" class="active-path" data-old_color="#000000" fill="#1273EB"/><path d="M50.37,22.13,50.85,25H51a10.867,10.867,0,0,1,7.19,2.69A6.988,6.988,0,0,0,54,16.08,7.008,7.008,0,0,1,50.37,22.13Z" data-original="#000000" class="active-path" data-old_color="#000000" fill="#1273EB"/><path d="M51,27h-.38l-2.73,5.45a1,1,0,0,1-1.78,0L43.38,27H43a9.01,9.01,0,0,0-9,9v1h5a1,1,0,0,1,1,1v2.77A3.017,3.017,0,0,1,41,43H54V38a1,1,0,0,1,1-1h5V36a9.027,9.027,0,0,0-9-9ZM48,41H46V39h2Zm0-4H46V35h2Z" data-original="#000000" class="active-path" data-old_color="#000000" fill="#1273EB"/><path d="M35,43.11a3.086,3.086,0,0,1,2.5-3.07,2.8,2.8,0,0,1,.5-.03V39H34v4.54a3.974,3.974,0,0,1,1-.41Z" data-original="#000000" class="active-path" data-old_color="#000000" fill="#1273EB"/><path d="M38,59a1,1,0,0,0,1,1H55a1,1,0,0,0,1-1V51H38Z" data-original="#000000" class="active-path" data-old_color="#000000" fill="#1273EB"/><path d="M56,44a1,1,0,0,1-1,1H40a1,1,0,0,1-1-1V43a1.011,1.011,0,0,0-.35-.76A.987.987,0,0,0,38,42a.973.973,0,0,0-1,1.11V44a1,1,0,0,1-1,1,2,2,0,0,0-2,2.11A2.127,2.127,0,0,0,36.17,49H57a3.009,3.009,0,0,0,3-3V39H56Z" data-original="#000000" class="active-path" data-old_color="#000000" fill="#1273EB"/></g></g> </svg>
